<svg width="23" height="24" viewBox="0 0 23 24" fill="none" xmlns="http://www.w3.org/2000/svg">
<path d="M10.7753 23.518C11.1967 23.5077 11.6012 23.3404 11.9171 23.0455C12.233 22.7506 12.44 22.3473 12.5015 21.9067H8.98212C9.04533 22.3592 9.26201 22.7721 9.59186 23.0685C9.9217 23.3648 10.3422 23.5246 10.7753 23.518Z" fill="white"/>
<path d="M10.7753 23.518C11.1967 23.5077 11.6012 23.3404 11.9171 23.0455C12.233 22.7506 12.44 22.3473 12.5015 21.9067H8.98212C9.04533 22.3592 9.26201 22.7721 9.59186 23.0685C9.9217 23.3648 10.3422 23.5246 10.7753 23.518Z" stroke="white"/>
<path d="M20.6159 18.4149C19.9664 17.8254 19.3977 17.1496 18.9252 16.4057C18.4094 15.3788 18.1003 14.2573 18.0159 13.1072V9.71956C18.0132 9.30807 17.9771 8.89752 17.9082 8.49206C17.378 8.38417 16.8685 8.18964 16.3994 7.91603C16.5782 8.50224 16.669 9.11259 16.6688 9.72642V13.114C16.7514 14.5171 17.1304 15.8855 17.7802 17.1257C18.2452 17.8759 18.797 18.5666 19.4237 19.183H2.17366C2.80035 18.5666 3.35213 17.8759 3.81716 17.1257C4.46689 15.8855 4.84599 14.5171 4.92854 13.114V9.71956C4.925 8.92593 5.07525 8.13938 5.3707 7.40495C5.66615 6.67052 6.10099 6.00264 6.65032 5.43954C7.19966 4.87645 7.8527 4.4292 8.57204 4.12341C9.29139 3.81762 10.0629 3.65929 10.8425 3.6575C11.9833 3.65843 13.0986 4.00192 14.0486 4.64498C13.9439 4.25341 13.8851 3.85058 13.8735 3.44492V3.01289C13.1702 2.66066 12.4146 2.42896 11.6373 2.32714V1.46309C11.6373 1.22029 11.5425 0.987432 11.3739 0.815746C11.2053 0.64406 10.9765 0.547607 10.738 0.547607C10.4996 0.547607 10.2708 0.64406 10.1022 0.815746C9.93358 0.987432 9.83884 1.22029 9.83884 1.46309V2.36143C8.09815 2.61142 6.50507 3.49411 5.35371 4.84655C4.20235 6.19899 3.57045 7.92984 3.57468 9.71956V13.1072C3.49032 14.2573 3.18117 15.3788 2.66536 16.4057C2.2012 17.1479 1.64167 17.8236 1.00166 18.4149C0.929808 18.4792 0.872225 18.5583 0.832738 18.647C0.793251 18.7356 0.772765 18.8319 0.772644 18.9292V19.8619C0.772644 20.0437 0.843609 20.2182 0.969927 20.3468C1.09624 20.4754 1.26757 20.5476 1.44621 20.5476H20.1713C20.35 20.5476 20.5213 20.4754 20.6476 20.3468C20.7739 20.2182 20.8449 20.0437 20.8449 19.8619V18.9292C20.8448 18.8319 20.8243 18.7356 20.7848 18.647C20.7453 18.5583 20.6877 18.4792 20.6159 18.4149Z" fill="white"/>
<path d="M18.8042 7.06667C20.6517 7.06667 22.1495 5.48474 22.1495 3.53333C22.1495 1.58193 20.6517 0 18.8042 0C16.9566 0 15.4588 1.58193 15.4588 3.53333C15.4588 5.48474 16.9566 7.06667 18.8042 7.06667Z" fill="url(#paint0_linear)"/>
<path d="M18.8042 7.06667C20.6517 7.06667 22.1495 5.48474 22.1495 3.53333C22.1495 1.58193 20.6517 0 18.8042 0C16.9566 0 15.4588 1.58193 15.4588 3.53333C15.4588 5.48474 16.9566 7.06667 18.8042 7.06667Z" stroke="white"/>
<defs>
<linearGradient id="paint0_linear" x1="18.8042" y1="0" x2="18.8042" y2="7.06667" gradientUnits="userSpaceOnUse">
<stop stop-color="#326CFF"/>
<stop offset="1" stop-color="#26FFF2"/>
</linearGradient>
</defs>
</svg>
