<svg width="19" height="20" viewBox="0 0 19 20" fill="none" xmlns="http://www.w3.org/2000/svg">
<path d="M13.3554 12.6891C13.9376 12.3844 14.6039 12.2109 15.3135 12.2109H15.3159C15.3881 12.2109 15.4217 12.1266 15.3688 12.0797C14.6309 11.4344 13.7879 10.9132 12.8744 10.5375C12.8647 10.5328 12.8551 10.5305 12.8455 10.5258C14.3393 9.46875 15.3111 7.75078 15.3111 5.8125C15.3111 2.60156 12.6458 0 9.35758 0C6.06932 0 3.40648 2.60156 3.40648 5.8125C3.40648 7.75078 4.37829 9.46875 5.87448 10.5258C5.86486 10.5305 5.85524 10.5328 5.84561 10.5375C4.77038 10.9805 3.80579 11.6156 2.97591 12.4266C2.15082 13.229 1.49394 14.1803 1.04192 15.2273C0.597183 16.2526 0.357162 17.3512 0.334716 18.4641C0.334074 18.4891 0.338577 18.514 0.34796 18.5373C0.357343 18.5605 0.371416 18.5818 0.38935 18.5997C0.407283 18.6176 0.428715 18.6318 0.452382 18.6415C0.476048 18.6513 0.501471 18.6563 0.527152 18.6562H1.96802C2.07145 18.6562 2.15805 18.5742 2.16046 18.4734C2.20857 16.6641 2.95185 14.9695 4.26764 13.6852C5.62672 12.3563 7.43562 11.625 9.35999 11.625C10.7239 11.625 12.0324 11.993 13.1606 12.682C13.1896 12.6998 13.2229 12.7098 13.2571 12.711C13.2913 12.7122 13.3252 12.7047 13.3554 12.6891ZM9.35999 9.84375C8.25829 9.84375 7.22154 9.42422 6.43976 8.6625C6.05512 8.28869 5.75018 7.84443 5.54253 7.35529C5.33487 6.86616 5.22859 6.34183 5.22982 5.8125C5.22982 4.73672 5.66039 3.72422 6.43976 2.9625C7.21913 2.20078 8.25588 1.78125 9.35999 1.78125C10.4641 1.78125 11.4984 2.20078 12.2802 2.9625C12.6649 3.33631 12.9698 3.78057 13.1774 4.26971C13.3851 4.75884 13.4914 5.28317 13.4902 5.8125C13.4902 6.88828 13.0596 7.90078 12.2802 8.6625C11.4984 9.42422 10.4617 9.84375 9.35999 9.84375ZM18.2073 15.4219H16.1867V13.4531C16.1867 13.35 16.1001 13.2656 15.9942 13.2656H14.6472C14.5413 13.2656 14.4547 13.35 14.4547 13.4531V15.4219H12.4342C12.3283 15.4219 12.2417 15.5063 12.2417 15.6094V16.9219C12.2417 17.025 12.3283 17.1094 12.4342 17.1094H14.4547V19.0781C14.4547 19.1812 14.5413 19.2656 14.6472 19.2656H15.9942C16.1001 19.2656 16.1867 19.1812 16.1867 19.0781V17.1094H18.2073C18.3131 17.1094 18.3997 17.025 18.3997 16.9219V15.6094C18.3997 15.5063 18.3131 15.4219 18.2073 15.4219Z" fill="white"/>
</svg>
