<svg width="21" height="20" viewBox="0 0 21 20" fill="none" xmlns="http://www.w3.org/2000/svg">
<path d="M19.5017 19L13.48 13L19.5017 19ZM15.4872 8C15.4872 8.91925 15.3055 9.82951 14.9525 10.6788C14.5994 11.5281 14.0819 12.2997 13.4296 12.9497C12.7772 13.5998 12.0027 14.1154 11.1504 14.4672C10.2981 14.8189 9.38451 15 8.46194 15C7.53936 15 6.62582 14.8189 5.77347 14.4672C4.92113 14.1154 4.14666 13.5998 3.49431 12.9497C2.84195 12.2997 2.32447 11.5281 1.97141 10.6788C1.61836 9.82951 1.43665 8.91925 1.43665 8C1.43665 6.14348 2.17681 4.36301 3.49431 3.05025C4.8118 1.7375 6.59871 1 8.46194 1C10.3252 1 12.1121 1.7375 13.4296 3.05025C14.7471 4.36301 15.4872 6.14348 15.4872 8Z" stroke="white" stroke-width="2" stroke-linecap="round" stroke-linejoin="round"/>
</svg>
